<?xml version="1.0" encoding="utf-8"?>
<!-- Generator: Adobe Illustrator 14.0.0, SVG Export Plug-In . SVG Version: 6.00 Build 43363)  -->
<!DOCTYPE svg PUBLIC "-//W3C//DTD SVG 1.1//EN" "http://www.w3.org/Graphics/SVG/1.1/DTD/svg11.dtd">
<svg version="1.1" id="图层_1" xmlns="http://www.w3.org/2000/svg" xmlns:xlink="http://www.w3.org/1999/xlink" x="0px" y="0px"
	 width="256px" height="256px" viewBox="0 0 256 256" enable-background="new 0 0 256 256" xml:space="preserve">
<g id="图层_1_1_">
	<path fill="#F56741" d="M254,127.979c-0.945,16.643-0.215,34.316-4.172,51.346c-3.697,16.942-12.084,33.284-24.469,45.584
		c-12.299,12.428-28.598,20.813-45.584,24.469c-17.029,3.957-34.703,3.226-51.346,4.172c-16.643-0.946-34.317-0.215-51.346-4.172
		c-16.943-3.698-33.284-12.085-45.583-24.47c-12.428-12.299-20.813-28.598-24.469-45.584c-4.042-16.986-3.268-34.66-4.214-51.346
		c0.946-16.643,0.215-34.317,4.171-51.346c3.698-16.943,12.084-33.285,24.469-45.583C43.756,18.621,60.054,10.235,77.041,6.58
		c17.029-3.957,34.704-3.225,51.346-4.171c16.642,0.946,34.316,0.215,51.345,4.171c16.941,3.698,33.285,12.084,45.584,24.469
		c12.429,12.299,20.813,28.597,24.47,45.583C253.785,93.662,253.055,111.336,254,127.979z"/>
</g>
<g id="图层_5_x5F_复制">
	<path fill="#FFFFFF" d="M194.348,44.981c0.317,1.162,0.51,2.355,0.575,3.558l0.022,0.905v18.812
		c11.392,4.749,19.395,15.988,19.395,29.098v82.423c0,17.404-14.107,31.514-31.513,31.514H71.313
		c-17.406,0-31.514-14.107-31.514-31.514V82.808c0-8.419,6.172-15.565,14.502-16.792l119.213-32.944
		c9.041-2.465,18.369,2.866,20.834,11.907l0,0V44.981L194.348,44.981z M182.827,80.382H56.926l-0.795,0.217
		c-0.951,0.26-1.65,1.068-1.769,2.046l-0.018,0.294v96.834c0,9.371,7.598,16.97,16.969,16.97l0,0h111.514
		c9.37,0,16.968-7.599,16.968-16.97l0,0v-12.121h-24.24c-15.818,0-28.688-12.627-29.082-28.353l-0.009-0.735
		c0-16.065,13.022-29.09,29.091-29.09h24.24v-12.12c0-9.146-7.247-16.646-16.388-16.959l-0.58-0.01V80.382z M199.795,124.018h-24.24
		c-7.822-0.001-14.244,6.184-14.537,14l-0.008,0.545c0,8.035,6.51,14.545,14.545,14.545h24.24V124.018L199.795,124.018z
		 M177.637,47.042l-0.271,0.058l-67.807,18.739H180.4V49.442c0.002-1.339-1.082-2.425-2.422-2.427c-0.115,0-0.229,0.008-0.346,0.024
		v0.003H177.637z"/>
</g>
</svg>
