<?xml version="1.0" encoding="utf-8"?>
<!-- Generator: Adobe Illustrator 14.0.0, SVG Export Plug-In . SVG Version: 6.00 Build 43363)  -->
<!DOCTYPE svg PUBLIC "-//W3C//DTD SVG 1.1//EN" "http://www.w3.org/Graphics/SVG/1.1/DTD/svg11.dtd">
<svg version="1.1" id="图层_1" xmlns="http://www.w3.org/2000/svg" xmlns:xlink="http://www.w3.org/1999/xlink" x="0px" y="0px"
	 width="256px" height="256px" viewBox="0 0 256 256" enable-background="new 0 0 256 256" xml:space="preserve">
<g id="图层_5">
	<path fill="#BFBFBF" d="M204.182,32.169c0.367,1.348,0.59,2.73,0.666,4.125l0.026,1.048v21.81
		c13.206,5.506,22.485,18.536,22.485,33.735v95.558c0,20.181-16.356,36.537-36.536,36.537H61.537
		c-20.18,0-36.537-16.356-36.537-36.537V76.025c0-9.761,7.156-18.046,16.813-19.468l138.21-38.196
		c10.48-2.858,21.299,3.322,24.156,13.805l0,0v0.003H204.182z M190.822,73.212H44.856l-0.922,0.252
		c-1.102,0.3-1.913,1.238-2.052,2.372l-0.02,0.341v112.267c0,10.865,8.809,19.677,19.674,19.677l0,0h129.286
		c10.863,0,19.673-8.812,19.673-19.677l0,0v-14.053h-28.104c-18.34,0-33.262-14.641-33.717-32.869l-0.01-0.854
		c0-18.625,15.1-33.727,33.727-33.727h28.104V92.888c0-10.604-8.401-19.299-19-19.663l-0.673-0.011V73.212L190.822,73.212z
		 M210.496,123.802h-28.104c-9.068-0.001-16.517,7.171-16.854,16.23l-0.011,0.633c0,9.313,7.549,16.862,16.863,16.862h28.104
		L210.496,123.802L210.496,123.802z M184.805,34.558l-0.313,0.067l-78.614,21.726h82.136v-19.01c0.002-1.553-1.256-2.812-2.81-2.813
		c-0.134,0-0.267,0.009-0.397,0.028v0.002H184.805z"/>
</g>
</svg>
