<?xml version="1.0" encoding="utf-8"?>
<!-- Generator: Adobe Illustrator 14.0.0, SVG Export Plug-In . SVG Version: 6.00 Build 43363)  -->
<!DOCTYPE svg PUBLIC "-//W3C//DTD SVG 1.1//EN" "http://www.w3.org/Graphics/SVG/1.1/DTD/svg11.dtd">
<svg version="1.1" xmlns="http://www.w3.org/2000/svg" xmlns:xlink="http://www.w3.org/1999/xlink" x="0px" y="0px" width="256px"
	 height="256px" viewBox="0 0 256 256" enable-background="new 0 0 256 256" xml:space="preserve">
<g id="图层_1">
	<path fill="#F56741" d="M254,127.979c-0.946,16.643-0.215,34.316-4.172,51.346c-3.697,16.943-12.084,33.285-24.469,45.584
		c-12.299,12.428-28.598,20.814-45.584,24.469c-17.029,3.957-34.703,3.226-51.346,4.172c-16.643-0.946-34.317-0.215-51.346-4.172
		C60.14,245.68,43.799,237.293,31.5,224.908c-12.428-12.299-20.813-28.598-24.469-45.584c-4.042-16.986-3.268-34.66-4.214-51.346
		c0.946-16.643,0.215-34.317,4.171-51.346c3.698-16.943,12.084-33.285,24.469-45.583C43.756,18.621,60.054,10.235,77.041,6.58
		c17.029-3.957,34.704-3.225,51.346-4.171c16.643,0.946,34.316,0.215,51.346,4.171c16.943,3.698,33.285,12.084,45.584,24.469
		c12.428,12.299,20.814,28.597,24.469,45.583C253.785,93.662,253.054,111.336,254,127.979z"/>
</g>
<g id="图层_2" display="none">
	<path display="inline" fill="#BFBFBF" d="M164.438,52.244c-3.958-3.957-10.368-3.957-14.326,0c-3.956,3.958-3.956,10.368,0,14.326
		l9.587,13.099H76.94c-5.599,0-10.13,4.531-10.13,10.13S71.341,99.93,76.94,99.93c0,0,88.852,0,101.308,0s14.959-2.553,10.13-10.131
		C183.551,82.241,164.438,52.244,164.438,52.244z"/>
	<path display="inline" fill="#BFBFBF" d="M163.052,110.061H87.169c-10.13,0-16.789,0.85-10.298,9.28s29.591,38.406,29.591,38.406
		c3.957,3.957,10.368,3.957,14.325,0c3.958-3.958,3.958-10.368,0-14.326l-9.823-13.098h52.088c5.599,0,10.13-4.532,10.13-10.131
		C173.183,114.592,168.65,110.061,163.052,110.061z"/>
	<path display="inline" fill="#BFBFBF" d="M239.132,86.495c0,0-31.847-67.611-47.775-67.611c-15.889,0-111.438,0-127.326,0
		c-15.929,0-47.775,67.611-47.775,67.611s-6.401,10.448,0,20.262c6.401,9.833,99.17,135.004,111.438,135.004
		c12.268,0,105.503-126.141,111.438-135.004C245.067,97.892,239.132,86.495,239.132,86.495z M127.678,215.938
		C103.044,189.879,44.213,112,33.855,96.635c0.4-0.563,0.252-0.494,0.727-1.513C45.96,70.982,60.893,46.278,68.234,39.146h118.914
		c7.33,7.123,22.265,31.837,33.656,55.986c0.113,0.247,0.238,0.484,0.356,0.722c0,0,0.134,0.475,0.237,0.95
		C210.229,112.909,152.135,189.998,127.678,215.938z"/>
</g>
<g id="图层_3" display="none">
	<path display="inline" fill="#BFBFBF" d="M118.201,40.545l-76.292,72.442c-2.843,2.612-3.05,7.027-0.466,9.896
		c1.724,1.911,4.725,2.225,9.003,0.942l-0.207,74.073c-0.01,7.773,6.283,14.084,14.058,14.093c0.006,0,0.011,0,0.017,0h41.056
		v-44.359c-0.007-5.474,4.423-9.917,9.898-9.924c0.005,0,0.012,0,0.017,0h24.009c5.475-0.003,9.914,4.432,9.915,9.907
		c0,0.005,0,0.012,0,0.017v44.359h40.797c7.773,0.003,14.076-6.297,14.08-14.07c0-0.008,0-0.015,0-0.022l0.09-73.492
		c3.128,2.829,6.092,1.421,8.693-1.477c2.605-2.885,2.379-7.336-0.507-9.94c0-0.001,0-0.002-0.001-0.002l-75.293-72.438
		C131.716,35.691,123.553,35.691,118.201,40.545L118.201,40.545z M236.544,116.735c0.391,7.652-2.27,15.146-7.396,20.84
		c-0.975,1.087-1.999,2.108-3.094,3.065l-0.07,57.264c0.003,9.539-3.783,18.688-10.525,25.437
		c-6.748,6.755-15.905,10.551-25.452,10.549H64.314c-19.867,0-35.973-16.106-35.973-35.974c0-0.015,0-0.03,0-0.046l0.16-57.214
		c-1.194-0.941-2.305-1.982-3.322-3.111c-10.576-11.731-9.784-29.76,1.739-40.521l76.385-72.531
		c13.888-12.597,34.786-12.593,48.484-0.157l75.59,72.71C232.874,102.17,236.161,109.231,236.544,116.735L236.544,116.735z"/>
</g>
<g id="图层_4" display="none">
	<path display="inline" fill="#BFBFBF" d="M216.139,193.431l-14.349-14.317L96.333,73.655h70.954l-21.286,21.257l65.8,65.781
		c18.8-46.085-3.32-98.688-49.406-117.488c-28.61-11.672-61.208-7.872-86.367,10.069l-14.349-14.35
		c48.489-36.826,117.648-27.373,154.477,21.115c29.94,39.42,29.936,93.964-0.014,133.379L216.139,193.431z M167.287,172.967H96.333
		l21.286-21.288L49.31,83.386c-24.104,43.543-8.346,98.384,35.197,122.488c33.601,18.601,75.298,13.862,103.869-11.804
		l14.191,14.191c-44.906,41.081-114.616,37.98-155.697-6.928c-38.521-42.108-38.521-106.661,0-148.77l3.362,3.361L167.287,172.967z"
		/>
</g>
<g id="图层_5" display="none">
	<path display="inline" fill="#BFBFBF" d="M204.181,32.169c0.368,1.348,0.591,2.73,0.667,4.125l0.026,1.048v21.81
		c13.206,5.506,22.485,18.536,22.485,33.735v95.559c0,20.18-16.356,36.537-36.536,36.537H61.537
		c-20.18,0-36.537-16.357-36.537-36.537V76.025c0-9.761,7.156-18.046,16.813-19.468l138.211-38.196
		c10.482-2.858,21.298,3.322,24.156,13.805l0,0V32.169z M190.823,73.212H44.856l-0.922,0.252c-1.102,0.3-1.913,1.238-2.052,2.372
		l-0.02,0.341v112.267c0,10.865,8.809,19.674,19.674,19.674l0,0h129.286c10.864,0,19.673-8.809,19.673-19.674l0,0v-14.053h-28.104
		c-18.34,0-33.262-14.641-33.717-32.869l-0.01-0.854c0-18.625,15.1-33.727,33.727-33.727h28.104V92.888
		c0-10.604-8.402-19.299-19-19.663l-0.673-0.011V73.212z M210.496,123.802h-28.104c-9.068-0.001-16.514,7.17-16.854,16.23
		l-0.01,0.633c0,9.313,7.548,16.863,16.863,16.863h28.104V123.802z M184.805,34.558l-0.314,0.067l-78.614,21.726h82.134v-19.01
		c0.002-1.553-1.254-2.812-2.808-2.813c-0.133,0-0.266,0.009-0.398,0.028V34.558z"/>
</g>
<g id="图层_2_x5F_复制" display="none">
	<path display="inline" fill="#FFFFFF" d="M160.069,62.296c-3.415-3.413-8.943-3.413-12.358,0c-3.412,3.414-3.412,8.943,0,12.356
		l8.271,11.299H84.599c-4.829,0-8.738,3.907-8.738,8.737c0,4.83,3.909,8.739,8.738,8.739c0,0,76.636,0,87.38,0
		c10.745,0,12.903-2.202,8.737-8.739C176.555,88.169,160.069,62.296,160.069,62.296z"/>
	<path display="inline" fill="#FFFFFF" d="M158.872,112.165h-65.45c-8.738,0-14.481,0.733-8.883,8.005
		c5.599,7.269,25.523,33.124,25.523,33.124c3.412,3.414,8.943,3.414,12.355,0c3.415-3.413,3.415-8.942,0-12.355l-8.474-11.297
		h44.928c4.83,0,8.738-3.909,8.738-8.739C167.611,116.074,163.702,112.165,158.872,112.165z"/>
	<path display="inline" fill="#FFFFFF" d="M224.494,91.839c0,0-27.468-58.317-41.208-58.317c-13.703,0-96.119,0-109.822,0
		c-13.739,0-41.208,58.317-41.208,58.317s-5.521,9.012,0,17.476c5.521,8.482,85.538,116.446,96.119,116.446s91-108.8,96.119-116.446
		C229.614,101.669,224.494,91.839,224.494,91.839z M128.361,203.487c-21.247-22.477-71.991-89.649-80.924-102.902
		c0.345-0.486,0.217-0.426,0.627-1.305c9.813-20.821,22.693-42.129,29.025-48.282h102.567c6.322,6.144,19.204,27.461,29.029,48.291
		c0.099,0.213,0.206,0.417,0.308,0.623c0,0,0.115,0.41,0.205,0.819C199.563,114.623,149.457,181.112,128.361,203.487z"/>
</g>
<g id="图层_3_x5F_复制" display="none">
	<path display="inline" fill="#FFFFFF" d="M120.188,52.206L54.383,114.69c-2.452,2.252-2.63,6.061-0.401,8.536
		c1.487,1.647,4.075,1.918,7.766,0.812l-0.179,63.89c-0.009,6.704,5.419,12.148,12.125,12.156c0.005,0,0.01,0,0.015,0h35.412
		v-38.263c-0.006-4.72,3.815-8.554,8.538-8.559c0.004,0,0.01,0,0.015,0h20.708c4.723-0.002,8.552,3.822,8.553,8.545
		c0,0.004,0,0.011,0,0.014v38.263h35.188c6.705,0.003,12.142-5.432,12.145-12.136c0-0.007,0-0.014,0-0.021l0.078-63.388
		c2.697,2.439,5.255,1.225,7.498-1.275c2.248-2.488,2.051-6.328-0.437-8.574c0,0,0-0.001-0.001-0.001l-64.942-62.481
		C131.844,48.019,124.804,48.019,120.188,52.206L120.188,52.206z M222.263,117.922c0.338,6.6-1.958,13.063-6.381,17.975
		c-0.84,0.938-1.724,1.819-2.667,2.646l-0.062,49.391c0.003,8.228-3.264,16.119-9.078,21.94c-5.821,5.826-13.719,9.102-21.954,9.1
		H73.709c-17.136,0-31.028-13.894-31.028-31.029c0-0.013,0-0.026,0-0.04l0.138-49.349c-1.029-0.812-1.988-1.71-2.865-2.683
		c-9.123-10.119-8.439-25.67,1.5-34.951l65.885-62.56c11.978-10.865,30.003-10.862,41.818-0.135l65.199,62.715
		C219.098,105.36,221.932,111.449,222.263,117.922L222.263,117.922z"/>
</g>
<g id="图层_4_x5F_复制" display="none">
	<path display="inline" fill="#FFFFFF" d="M204.662,184.074l-12.376-12.35l-90.96-90.96h61.201l-18.36,18.335l56.755,56.739
		c16.216-39.75-2.864-85.122-42.614-101.338c-24.678-10.067-52.795-6.79-74.495,8.685L71.435,50.808
		c41.823-31.764,101.476-23.61,133.242,18.212c25.824,34.001,25.82,81.048-0.012,115.044L204.662,184.074z M162.526,166.424h-61.201
		l18.36-18.362L60.767,89.157c-20.791,37.557-7.199,84.859,30.358,105.65c28.982,16.043,64.947,11.956,89.591-10.181l12.24,12.24
		c-38.734,35.434-98.86,32.759-134.295-5.976c-33.226-36.32-33.226-91.999,0-128.319l2.9,2.899L162.526,166.424z"/>
</g>
<g id="图层_5_x5F_复制">
	<path fill="#FFFFFF" d="M194.348,44.981c0.317,1.162,0.509,2.355,0.575,3.558l0.023,0.905v18.812
		c11.391,4.749,19.394,15.988,19.394,29.098v82.423c0,17.405-14.107,31.514-31.513,31.514H71.313
		c-17.406,0-31.514-14.108-31.514-31.514V82.808c0-8.419,6.172-15.565,14.502-16.792l119.212-32.944
		c9.041-2.465,18.37,2.866,20.835,11.907l0,0V44.981z M182.827,80.382H56.926l-0.795,0.217c-0.951,0.26-1.65,1.068-1.769,2.046
		l-0.018,0.294v96.835c0,9.371,7.598,16.969,16.969,16.969l0,0h111.514c9.37,0,16.968-7.598,16.968-16.969l0,0v-12.122h-24.241
		c-15.818,0-28.688-12.627-29.082-28.35l-0.008-0.738c0-16.065,13.023-29.09,29.09-29.09h24.241V97.354
		c0-9.146-7.247-16.646-16.388-16.959l-0.58-0.01V80.382z M199.795,124.018h-24.241c-7.821-0.001-14.243,6.184-14.536,14
		l-0.008,0.545c0,8.034,6.51,14.545,14.544,14.545h24.241V124.018z M177.636,47.042l-0.271,0.058l-67.807,18.739H180.4V49.442
		c0.002-1.339-1.082-2.425-2.421-2.427c-0.115,0-0.229,0.008-0.344,0.024V47.042z"/>
</g>
</svg>
