<?xml version="1.0" standalone="no"?><!DOCTYPE svg PUBLIC "-//W3C//DTD SVG 1.1//EN" "http://www.w3.org/Graphics/SVG/1.1/DTD/svg11.dtd"><svg t="1632389067097" class="icon" viewBox="0 0 1024 1024" version="1.1" xmlns="http://www.w3.org/2000/svg" p-id="40006" xmlns:xlink="http://www.w3.org/1999/xlink" width="256" height="256"><defs><style type="text/css"></style></defs><path d="M539.185041 562.305874l284.313989-284.49462a28.720409 28.720409 0 0 0-40.642089-40.642088L498.542953 521.663786 214.048333 237.169166a28.720409 28.720409 0 1 0-40.642089 40.642088l284.49462 284.49462L173.406244 846.619862a28.901041 28.901041 0 0 0 0 40.642089 28.901041 28.901041 0 0 0 40.642089 0L498.542953 602.947963l284.313988 284.313988a28.901041 28.901041 0 0 0 40.642089 0 28.901041 28.901041 0 0 0 0-40.642089z" fill="#f56741" p-id="40007" data-spm-anchor-id="a313x.7781069.0.i5" class="selected"></path></svg>