<?xml version="1.0" encoding="utf-8"?>
<!-- Generator: Adobe Illustrator 14.0.0, SVG Export Plug-In . SVG Version: 6.00 Build 43363)  -->
<!DOCTYPE svg PUBLIC "-//W3C//DTD SVG 1.1//EN" "http://www.w3.org/Graphics/SVG/1.1/DTD/svg11.dtd">
<svg version="1.1" id="图层_1" xmlns="http://www.w3.org/2000/svg" xmlns:xlink="http://www.w3.org/1999/xlink" x="0px" y="0px"
	 width="256px" height="256px" viewBox="0 0 256 256" enable-background="new 0 0 256 256" xml:space="preserve">
<g id="图层_1_1_">
	<path fill="#F56741" d="M254,127.979c-0.945,16.643-0.215,34.316-4.172,51.346c-3.697,16.942-12.084,33.284-24.469,45.584
		c-12.299,12.428-28.598,20.813-45.584,24.469c-17.029,3.957-34.703,3.226-51.346,4.172c-16.643-0.946-34.317-0.215-51.346-4.172
		c-16.943-3.698-33.284-12.085-45.583-24.47c-12.428-12.299-20.813-28.598-24.469-45.584c-4.042-16.986-3.268-34.66-4.214-51.346
		c0.946-16.643,0.215-34.317,4.171-51.346c3.698-16.943,12.084-33.285,24.469-45.583C43.756,18.621,60.054,10.235,77.041,6.58
		c17.029-3.957,34.704-3.225,51.346-4.171c16.642,0.946,34.316,0.215,51.345,4.171c16.941,3.698,33.285,12.084,45.584,24.469
		c12.429,12.299,20.813,28.597,24.47,45.583C253.785,93.662,253.055,111.336,254,127.979z"/>
</g>
<g id="图层_3_x5F_复制">
	<path fill="#FFFFFF" d="M120.188,52.206L54.383,114.69c-2.452,2.252-2.63,6.061-0.401,8.536c1.487,1.647,4.075,1.918,7.766,0.812
		l-0.179,63.89c-0.009,6.704,5.419,12.148,12.125,12.156c0.005,0,0.01,0,0.015,0h35.412v-38.263
		c-0.006-4.72,3.815-8.554,8.538-8.562c0.004,0,0.01,0,0.015,0h20.708c4.724-0.002,8.552,3.822,8.554,8.547c0,0.004,0,0.012,0,0.015
		v38.263h35.188c6.705,0.003,12.144-5.432,12.146-12.136c0-0.007,0-0.015,0-0.021l0.078-63.388c2.696,2.439,5.256,1.225,7.498-1.275
		c2.248-2.488,2.051-6.328-0.438-8.574c0,0,0-0.001-0.001-0.001l-64.942-62.481C131.844,48.019,124.804,48.019,120.188,52.206
		L120.188,52.206z M222.264,117.922c0.338,6.6-1.959,13.063-6.382,17.975c-0.84,0.938-1.724,1.819-2.667,2.646l-0.063,49.391
		c0.004,8.229-3.264,16.119-9.077,21.94c-5.821,5.826-13.72,9.103-21.954,9.101H73.709c-17.136,0-31.028-13.895-31.028-31.029
		c0-0.014,0-0.024,0-0.038l0.138-49.351c-1.029-0.813-1.988-1.711-2.865-2.684c-9.123-10.119-8.439-25.67,1.5-34.951l65.885-62.56
		c11.978-10.865,30.003-10.862,41.818-0.135l65.198,62.715C219.098,105.36,221.932,111.449,222.264,117.922L222.264,117.922z"/>
</g>
</svg>
