<?xml version="1.0" encoding="utf-8"?>
<!-- Generator: Adobe Illustrator 14.0.0, SVG Export Plug-In . SVG Version: 6.00 Build 43363)  -->
<!DOCTYPE svg PUBLIC "-//W3C//DTD SVG 1.1//EN" "http://www.w3.org/Graphics/SVG/1.1/DTD/svg11.dtd">
<svg version="1.1" id="图层_1" xmlns="http://www.w3.org/2000/svg" xmlns:xlink="http://www.w3.org/1999/xlink" x="0px" y="0px"
	 width="256px" height="256px" viewBox="0 0 256 256" enable-background="new 0 0 256 256" xml:space="preserve">
<g id="图层_3">
	<path fill="#BFBFBF" d="M118.201,40.545l-76.292,72.442c-2.843,2.612-3.05,7.027-0.466,9.896c1.724,1.911,4.725,2.225,9.003,0.942
		l-0.207,74.073c-0.01,7.771,6.283,14.084,14.058,14.093c0.006,0,0.011,0,0.017,0h41.056v-44.359
		c-0.007-5.474,4.423-9.917,9.898-9.924c0.005,0,0.012,0,0.017,0h24.009c5.476-0.003,9.914,4.433,9.915,9.907
		c0,0.005,0,0.012,0,0.017v44.359h40.797c7.773,0.003,14.076-6.298,14.08-14.07c0-0.008,0-0.015,0-0.022l0.09-73.489
		c3.129,2.829,6.092,1.421,8.693-1.477c2.605-2.885,2.379-7.336-0.508-9.94c0-0.001,0-0.002,0-0.002l-75.293-72.44
		C131.716,35.691,123.553,35.691,118.201,40.545L118.201,40.545z M236.544,116.735c0.392,7.652-2.271,15.146-7.396,20.84
		c-0.978,1.087-2,2.108-3.094,3.065l-0.07,57.264c0.002,9.539-3.783,18.688-10.525,25.437c-6.748,6.755-15.904,10.552-25.452,10.55
		H64.314c-19.867,0-35.973-16.104-35.973-35.975c0-0.016,0-0.03,0-0.046l0.16-57.214c-1.194-0.941-2.305-1.982-3.322-3.111
		c-10.576-11.731-9.784-29.76,1.739-40.521l76.385-72.531c13.888-12.597,34.786-12.593,48.484-0.157l75.59,72.71
		C232.874,102.17,236.161,109.231,236.544,116.735L236.544,116.735z"/>
</g>
</svg>
