<?xml version="1.0" encoding="utf-8"?>
<!-- Generator: Adobe Illustrator 14.0.0, SVG Export Plug-In . SVG Version: 6.00 Build 43363)  -->
<!DOCTYPE svg PUBLIC "-//W3C//DTD SVG 1.1//EN" "http://www.w3.org/Graphics/SVG/1.1/DTD/svg11.dtd">
<svg version="1.1" id="图层_1" xmlns="http://www.w3.org/2000/svg" xmlns:xlink="http://www.w3.org/1999/xlink" x="0px" y="0px"
	 width="256px" height="256px" viewBox="0 0 256 256" enable-background="new 0 0 256 256" xml:space="preserve">
<g id="图层_1_1_">
	<path fill="#F56741" d="M254,127.979c-0.945,16.643-0.215,34.316-4.172,51.346c-3.697,16.942-12.084,33.284-24.469,45.584
		c-12.299,12.428-28.598,20.813-45.584,24.469c-17.029,3.957-34.703,3.226-51.346,4.172c-16.643-0.946-34.317-0.215-51.346-4.172
		c-16.943-3.698-33.284-12.085-45.583-24.47c-12.428-12.299-20.813-28.598-24.469-45.584c-4.042-16.986-3.268-34.66-4.214-51.346
		c0.946-16.643,0.215-34.317,4.171-51.346c3.698-16.943,12.084-33.285,24.469-45.583C43.756,18.621,60.054,10.235,77.041,6.58
		c17.029-3.957,34.704-3.225,51.346-4.171c16.642,0.946,34.316,0.215,51.345,4.171c16.941,3.698,33.285,12.084,45.584,24.469
		c12.429,12.299,20.813,28.597,24.47,45.583C253.785,93.662,253.055,111.336,254,127.979z"/>
</g>
<path fill="#FFFFFF" d="M128.83,228.24c-48.236-0.693-80.031-17.358-80.031-45.34c0-17.357,13.917-36.746,35.014-49.004
	c3.813-2.08,9.707-4.457,18.818,0.396c9.113,4.854,15.947,8.565,26.1,8.565c10.151,0,19.391-4.356,26.101-8.565
	c6.71-4.21,12.382-4.284,18.817-0.396c21.271,12.258,35.188,31.646,35.188,49.004C208.837,210.882,176.473,228.934,128.83,228.24z
	 M166.171,146.945c0,0-13.42,11.837-37.341,11.936c-20.899,0-37.342-11.936-37.342-11.936
	c-16.119,8.791-26.643,22.585-26.643,35.955c0,22.089,31.968,29.49,64.008,29.269c33.106-0.147,64.01-7.255,64.01-29.269
	C192.863,169.53,182.291,155.736,166.171,146.945z M128.83,132.114c-21.592,0-41.03-13-49.301-32.958
	c-8.246-19.934-3.665-42.888,11.589-58.141c15.303-15.253,38.256-19.785,58.19-11.514c19.934,8.27,32.906,27.758,32.855,49.35
	C182.118,108.269,158.247,132.114,128.83,132.114z M128.83,41.411c-20.626,0-37.342,16.689-37.367,37.316
	c-0.023,20.626,16.667,37.366,37.292,37.391c20.628,0.025,37.366-16.64,37.416-37.267c0-20.602-16.714-37.316-37.341-37.341V41.411z
	"/>
</svg>
