<?xml version="1.0" encoding="utf-8"?>
<!-- Generator: Adobe Illustrator 14.0.0, SVG Export Plug-In . SVG Version: 6.00 Build 43363)  -->
<!DOCTYPE svg PUBLIC "-//W3C//DTD SVG 1.1//EN" "http://www.w3.org/Graphics/SVG/1.1/DTD/svg11.dtd">
<svg version="1.1" id="图层_1" xmlns="http://www.w3.org/2000/svg" xmlns:xlink="http://www.w3.org/1999/xlink" x="0px" y="0px"
	 width="256px" height="256px" viewBox="0 0 256 256" enable-background="new 0 0 256 256" xml:space="preserve">
<path fill="#BFBFBF" d="M127.327,237.238c-52.759-0.76-87.535-18.985-87.535-49.592c0-18.985,15.222-40.192,38.297-53.6
	c4.17-2.273,10.617-4.875,20.583,0.434c9.968,5.31,17.442,9.371,28.547,9.371c11.104,0,21.208-4.769,28.546-9.371
	c7.34-4.604,13.543-4.687,20.584-0.434c23.264,13.405,38.486,34.612,38.486,53.6C214.837,218.253,179.438,237.997,127.327,237.238z
	 M168.17,148.32c0,0-14.679,12.945-40.843,13.055c-22.858,0-40.843-13.055-40.843-13.055c-17.63,9.615-29.141,24.701-29.141,39.326
	c0,24.16,34.965,32.256,70.012,32.014c36.211-0.161,70.012-7.936,70.012-32.014C197.366,173.021,185.803,157.938,168.17,148.32z
	 M127.327,132.1c-23.616,0-44.877-14.221-53.924-36.05c-9.019-21.803-4.008-46.91,12.676-63.593
	c16.738-16.684,41.844-21.641,63.647-12.594c21.803,9.045,35.991,30.36,35.938,53.978C185.613,106.017,159.503,132.1,127.327,132.1z
	 M127.327,32.89c-22.561,0-40.843,18.254-40.871,40.815c-0.025,22.561,18.229,40.871,40.789,40.897
	c22.563,0.027,40.87-18.2,40.925-40.762c0-22.534-18.281-40.815-40.843-40.842V32.89L127.327,32.89z"/>
</svg>
