<?xml version="1.0" standalone="no"?><!DOCTYPE svg PUBLIC "-//W3C//DTD SVG 1.1//EN" "http://www.w3.org/Graphics/SVG/1.1/DTD/svg11.dtd"><svg t="1632393367995" class="icon" viewBox="0 0 1024 1024" version="1.1" xmlns="http://www.w3.org/2000/svg" p-id="55252" xmlns:xlink="http://www.w3.org/1999/xlink" width="256" height="256"><defs><style type="text/css"></style></defs><path d="M376.256 728.576l234.368-234.368a26.368 26.368 0 0 1 37.184 37.184L413.44 765.76a26.368 26.368 0 0 1-37.184-37.184z" p-id="55253" data-spm-anchor-id="a313x.7781069.0.i21" class="selected" fill="#ffffff"></path><path d="M610.624 529.792L376.256 295.424a26.368 26.368 0 0 1 37.184-37.184l234.368 234.368a26.368 26.368 0 0 1-37.184 37.184z" p-id="55254" data-spm-anchor-id="a313x.7781069.0.i19" class="selected" fill="#ffffff"></path><path d="M512 31.168c265.152 0 480.832 215.68 480.832 480.832S777.152 992.832 512 992.832 31.168 777.152 31.168 512 246.848 31.168 512 31.168z m0 936c251.008 0 455.168-204.16 455.168-455.168S763.008 56.832 512 56.832 56.832 260.992 56.832 512 260.992 967.168 512 967.168z" p-id="55255" data-spm-anchor-id="a313x.7781069.0.i22" class="selected" fill="#ffffff"></path></svg>