<?xml version="1.0" encoding="utf-8"?>
<!-- Generator: Adobe Illustrator 14.0.0, SVG Export Plug-In . SVG Version: 6.00 Build 43363)  -->
<!DOCTYPE svg PUBLIC "-//W3C//DTD SVG 1.1//EN" "http://www.w3.org/Graphics/SVG/1.1/DTD/svg11.dtd">
<svg version="1.1" id="图层_1" xmlns="http://www.w3.org/2000/svg" xmlns:xlink="http://www.w3.org/1999/xlink" x="0px" y="0px"
	 width="256px" height="256px" viewBox="0 0 256 256" enable-background="new 0 0 256 256" xml:space="preserve">
<g id="图层_1_1_">
	<path fill="#F56741" d="M254,127.979c-0.945,16.643-0.215,34.316-4.172,51.346c-3.697,16.942-12.084,33.284-24.469,45.584
		c-12.299,12.428-28.598,20.813-45.584,24.469c-17.029,3.957-34.703,3.226-51.346,4.172c-16.643-0.946-34.317-0.215-51.346-4.172
		c-16.943-3.698-33.284-12.085-45.583-24.47c-12.428-12.299-20.813-28.598-24.469-45.584c-4.042-16.986-3.268-34.66-4.214-51.346
		c0.946-16.643,0.215-34.317,4.171-51.346c3.698-16.943,12.084-33.285,24.469-45.583C43.756,18.621,60.054,10.235,77.041,6.58
		c17.029-3.957,34.704-3.225,51.346-4.171c16.642,0.946,34.316,0.215,51.345,4.171c16.941,3.698,33.285,12.084,45.584,24.469
		c12.429,12.299,20.813,28.597,24.47,45.583C253.785,93.662,253.055,111.336,254,127.979z"/>
</g>
<g id="图层_2_x5F_复制">
	<path fill="#FFFFFF" d="M160.068,65.296c-3.414-3.413-8.942-3.413-12.357,0c-3.412,3.414-3.412,8.943,0,12.356l8.271,11.299H84.599
		c-4.829,0-8.738,3.907-8.738,8.737s3.909,8.739,8.738,8.739c0,0,76.635,0,87.379,0c10.746,0,12.901-2.202,8.735-8.739
		C176.555,91.169,160.068,65.296,160.068,65.296z"/>
	<path fill="#FFFFFF" d="M158.872,115.165h-65.45c-8.738,0-14.481,0.733-8.883,8.005c5.599,7.27,25.523,33.124,25.523,33.124
		c3.412,3.414,8.943,3.414,12.355,0c3.415-3.413,3.415-8.942,0-12.354l-8.474-11.297h44.928c4.83,0,8.738-3.91,8.738-8.74
		C167.611,119.074,163.702,115.165,158.872,115.165z"/>
	<path fill="#FFFFFF" d="M224.494,94.839c0,0-27.469-58.317-41.208-58.317c-13.703,0-96.119,0-109.822,0
		c-13.739,0-41.208,58.317-41.208,58.317s-5.521,9.012,0,17.476c5.521,8.482,85.538,116.446,96.119,116.446s91-108.8,96.119-116.446
		S224.494,94.839,224.494,94.839z M128.361,206.486c-21.247-22.479-71.991-89.648-80.924-102.901
		c0.345-0.486,0.217-0.426,0.627-1.305c9.813-20.821,22.693-42.129,29.025-48.282h102.567c6.322,6.144,19.203,27.461,29.029,48.291
		c0.099,0.213,0.205,0.417,0.308,0.623c0,0,0.114,0.41,0.204,0.819C199.563,117.623,149.457,184.111,128.361,206.486z"/>
</g>
</svg>
