<?xml version="1.0" encoding="utf-8"?>
<!-- Generator: Adobe Illustrator 14.0.0, SVG Export Plug-In . SVG Version: 6.00 Build 43363)  -->
<!DOCTYPE svg PUBLIC "-//W3C//DTD SVG 1.1//EN" "http://www.w3.org/Graphics/SVG/1.1/DTD/svg11.dtd">
<svg version="1.1" id="图层_1" xmlns="http://www.w3.org/2000/svg" xmlns:xlink="http://www.w3.org/1999/xlink" x="0px" y="0px"
	 width="256px" height="256px" viewBox="0 0 256 256" enable-background="new 0 0 256 256" xml:space="preserve">
<g id="图层_2">
	<path fill="#BFBFBF" d="M164.438,52.244c-3.957-3.957-10.367-3.957-14.326,0c-3.953,3.958-3.953,10.368,0,14.326l9.59,13.099H76.94
		c-5.599,0-10.13,4.531-10.13,10.13c0,5.599,4.531,10.131,10.13,10.131c0,0,88.852,0,101.308,0s14.959-2.553,10.13-10.131
		C183.551,82.241,164.438,52.244,164.438,52.244z"/>
	<path fill="#BFBFBF" d="M163.053,110.061H87.169c-10.13,0-16.789,0.85-10.298,9.28c6.491,8.43,29.591,38.406,29.591,38.406
		c3.957,3.957,10.368,3.957,14.325,0c3.958-3.958,3.958-10.368,0-14.326l-9.823-13.098h52.089c5.598,0,10.129-4.532,10.129-10.131
		C173.184,114.592,168.65,110.061,163.053,110.061z"/>
	<path fill="#BFBFBF" d="M239.132,86.495c0,0-31.847-67.611-47.774-67.611c-15.89,0-111.438,0-127.327,0
		c-15.929,0-47.775,67.611-47.775,67.611s-6.401,10.448,0,20.262c6.401,9.833,99.17,135.004,111.438,135.004
		S233.197,115.62,239.132,106.757C245.066,97.892,239.132,86.495,239.132,86.495z M127.678,215.938
		C103.044,189.879,44.213,112,33.855,96.635c0.4-0.563,0.252-0.494,0.727-1.513c11.378-24.14,26.311-48.844,33.652-55.976h118.915
		c7.33,7.123,22.267,31.837,33.656,55.986c0.112,0.247,0.237,0.484,0.355,0.722c0,0,0.134,0.475,0.236,0.95
		C210.229,112.909,152.135,189.998,127.678,215.938z"/>
</g>
</svg>
