<?xml version="1.0" encoding="utf-8"?>
<!-- Generator: Adobe Illustrator 14.0.0, SVG Export Plug-In . SVG Version: 6.00 Build 43363)  -->
<!DOCTYPE svg PUBLIC "-//W3C//DTD SVG 1.1//EN" "http://www.w3.org/Graphics/SVG/1.1/DTD/svg11.dtd">
<svg version="1.1" id="图层_1" xmlns="http://www.w3.org/2000/svg" xmlns:xlink="http://www.w3.org/1999/xlink" x="0px" y="0px"
	 width="256px" height="256px" viewBox="0 0 256 256" enable-background="new 0 0 256 256" xml:space="preserve">
<g id="图层_1_2_">
	<g id="图层_1_1_">
		<path fill="#F56741" d="M254,127.979c-0.945,16.643-0.215,34.316-4.172,51.346c-3.697,16.942-12.084,33.284-24.469,45.584
			c-12.299,12.428-28.598,20.813-45.584,24.469c-17.029,3.957-34.703,3.226-51.346,4.172c-16.643-0.946-34.317-0.215-51.346-4.172
			c-16.943-3.698-33.284-12.085-45.583-24.47c-12.428-12.299-20.813-28.598-24.469-45.584c-4.042-16.986-3.268-34.66-4.214-51.346
			c0.946-16.643,0.215-34.317,4.171-51.346c3.698-16.943,12.084-33.285,24.469-45.583C43.756,18.621,60.054,10.235,77.041,6.58
			c17.029-3.957,34.704-3.225,51.346-4.171c16.642,0.946,34.316,0.215,51.345,4.171c16.942,3.698,33.285,12.084,45.584,24.469
			c12.429,12.299,20.813,28.597,24.47,45.583C253.785,93.662,253.055,111.336,254,127.979z"/>
	</g>
	<g id="图层_2" display="none">
		<path display="inline" fill="#BFBFBF" d="M164.438,52.244c-3.957-3.957-10.367-3.957-14.326,0c-3.954,3.958-3.954,10.368,0,14.326
			l9.589,13.099H76.94c-5.599,0-10.13,4.531-10.13,10.13c0,5.599,4.531,10.131,10.13,10.131c0,0,88.852,0,101.308,0
			s14.959-2.553,10.13-10.131C183.551,82.241,164.438,52.244,164.438,52.244z"/>
		<path display="inline" fill="#BFBFBF" d="M163.053,110.061H87.169c-10.13,0-16.789,0.85-10.298,9.28
			c6.491,8.43,29.591,38.406,29.591,38.406c3.957,3.957,10.368,3.957,14.325,0c3.958-3.958,3.958-10.368,0-14.326l-9.823-13.098
			h52.089c5.598,0,10.129-4.532,10.129-10.131C173.184,114.592,168.65,110.061,163.053,110.061z"/>
		<path display="inline" fill="#BFBFBF" d="M239.132,86.495c0,0-31.847-67.611-47.774-67.611c-15.89,0-111.438,0-127.327,0
			c-15.929,0-47.775,67.611-47.775,67.611s-6.401,10.448,0,20.262c6.401,9.833,99.17,135.004,111.438,135.004
			S233.197,115.62,239.132,106.757C245.066,97.892,239.132,86.495,239.132,86.495z M127.678,215.938
			C103.044,189.879,44.213,112,33.855,96.635c0.4-0.563,0.252-0.494,0.727-1.513c11.378-24.14,26.311-48.844,33.652-55.976h118.915
			c7.33,7.123,22.266,31.837,33.656,55.986c0.112,0.247,0.237,0.484,0.355,0.722c0,0,0.134,0.475,0.236,0.95
			C210.229,112.909,152.135,189.998,127.678,215.938z"/>
	</g>
	<g id="图层_3" display="none">
		<path display="inline" fill="#BFBFBF" d="M118.201,40.545l-76.292,72.442c-2.843,2.612-3.05,7.027-0.466,9.896
			c1.724,1.911,4.725,2.225,9.003,0.942l-0.207,74.073c-0.01,7.771,6.283,14.084,14.058,14.093c0.006,0,0.011,0,0.017,0h41.056
			v-44.359c-0.007-5.474,4.423-9.917,9.898-9.924c0.005,0,0.012,0,0.017,0h24.009c5.476-0.003,9.914,4.433,9.915,9.907
			c0,0.005,0,0.012,0,0.017v44.359h40.797c7.773,0.003,14.076-6.298,14.08-14.07c0-0.008,0-0.015,0-0.022l0.09-73.49
			c3.129,2.829,6.092,1.421,8.693-1.477c2.605-2.885,2.379-7.336-0.508-9.94c0-0.001,0-0.002,0-0.002L137.068,40.55
			C131.716,35.691,123.553,35.691,118.201,40.545L118.201,40.545z M236.544,116.735c0.392,7.652-2.271,15.146-7.396,20.84
			c-0.977,1.087-2,2.108-3.094,3.065l-0.07,57.264c0.002,9.539-3.783,18.688-10.525,25.437c-6.748,6.755-15.904,10.552-25.452,10.55
			H64.314c-19.867,0-35.973-16.105-35.973-35.975c0-0.016,0-0.03,0-0.046l0.16-57.214c-1.194-0.941-2.305-1.982-3.322-3.111
			c-10.576-11.731-9.784-29.76,1.739-40.521l76.385-72.531c13.888-12.597,34.786-12.593,48.484-0.157l75.59,72.71
			C232.874,102.17,236.161,109.231,236.544,116.735L236.544,116.735z"/>
	</g>
	<g id="图层_4" display="none">
		<path display="inline" fill="#BFBFBF" d="M216.139,193.432l-14.349-14.316L96.333,73.655h70.954l-21.286,21.257l65.8,65.781
			c18.801-46.085-3.32-98.688-49.406-117.488c-28.608-11.672-61.208-7.872-86.367,10.069l-14.349-14.35
			c48.489-36.826,117.648-27.373,154.477,21.115c29.939,39.42,29.936,93.964-0.014,133.379L216.139,193.432z M167.287,172.967
			H96.333l21.286-21.287L49.31,83.386c-24.104,43.543-8.346,98.384,35.197,122.488c33.601,18.601,75.298,13.862,103.869-11.804
			l14.19,14.189c-44.905,41.081-114.615,37.98-155.696-6.928c-38.521-42.107-38.521-106.661,0-148.77l3.362,3.361L167.287,172.967z"
			/>
	</g>
	<g id="图层_5" display="none">
		<path display="inline" fill="#BFBFBF" d="M204.182,32.169c0.367,1.348,0.59,2.73,0.666,4.125l0.026,1.048v21.81
			c13.206,5.506,22.485,18.536,22.485,33.735v95.558c0,20.181-16.356,36.537-36.536,36.537H61.537
			c-20.18,0-36.537-16.356-36.537-36.537V76.025c0-9.761,7.156-18.046,16.813-19.468l138.21-38.196
			c10.481-2.858,21.299,3.322,24.156,13.805l0,0v0.003H204.182z M190.822,73.212H44.856l-0.922,0.252
			c-1.102,0.3-1.913,1.238-2.052,2.372l-0.02,0.341v112.267c0,10.865,8.809,19.676,19.674,19.676l0,0h129.286
			c10.863,0,19.673-8.811,19.673-19.676l0,0v-14.053h-28.104c-18.34,0-33.262-14.641-33.717-32.869l-0.01-0.854
			c0-18.625,15.1-33.727,33.727-33.727h28.104V92.888c0-10.604-8.401-19.299-19-19.663l-0.673-0.011V73.212L190.822,73.212z
			 M210.496,123.802h-28.104c-9.068-0.001-16.516,7.171-16.854,16.23l-0.011,0.633c0,9.313,7.549,16.862,16.863,16.862h28.104
			L210.496,123.802L210.496,123.802z M184.805,34.558l-0.313,0.067l-78.614,21.726h82.136v-19.01
			c0.002-1.553-1.256-2.812-2.81-2.813c-0.134,0-0.267,0.009-0.397,0.028v0.002H184.805z"/>
	</g>
	<path display="none" fill="#BFBFBF" d="M127.327,237.238c-52.759-0.76-87.535-18.985-87.535-49.592
		c0-18.985,15.222-40.192,38.297-53.599c4.17-2.274,10.617-4.875,20.583,0.433c9.968,5.31,17.442,9.371,28.547,9.371
		c11.104,0,21.208-4.768,28.546-9.371c7.34-4.604,13.543-4.686,20.584-0.433c23.264,13.405,38.487,34.612,38.487,53.599
		C214.837,218.253,179.438,237.997,127.327,237.238z M168.17,148.32c0,0-14.679,12.945-40.843,13.055
		c-22.858,0-40.843-13.055-40.843-13.055c-17.63,9.615-29.141,24.701-29.141,39.326c0,24.16,34.965,32.256,70.012,32.014
		c36.211-0.161,70.012-7.936,70.012-32.014C197.366,173.021,185.803,157.938,168.17,148.32z M127.327,132.1
		c-23.616,0-44.877-14.221-53.924-36.05c-9.019-21.803-4.008-46.91,12.676-63.593c16.738-16.684,41.844-21.641,63.647-12.594
		c21.803,9.045,35.992,30.36,35.938,53.978C185.613,106.017,159.503,132.1,127.327,132.1z M127.327,32.89
		c-22.561,0-40.843,18.254-40.871,40.815c-0.025,22.561,18.229,40.871,40.789,40.897c22.563,0.027,40.87-18.2,40.925-40.762
		c0-22.534-18.281-40.815-40.843-40.842V32.89L127.327,32.89z"/>
	<g id="图层_2_x5F_复制" display="none">
		<path display="inline" fill="#FFFFFF" d="M160.068,62.296c-3.414-3.413-8.942-3.413-12.357,0c-3.412,3.414-3.412,8.943,0,12.356
			l8.271,11.299H84.599c-4.829,0-8.738,3.907-8.738,8.737s3.909,8.739,8.738,8.739c0,0,76.635,0,87.379,0
			c10.746,0,12.902-2.202,8.736-8.739C176.555,88.169,160.068,62.296,160.068,62.296z"/>
		<path display="inline" fill="#FFFFFF" d="M158.872,112.165h-65.45c-8.738,0-14.481,0.733-8.883,8.005
			c5.599,7.269,25.523,33.124,25.523,33.124c3.412,3.414,8.943,3.414,12.355,0c3.415-3.413,3.415-8.942,0-12.354l-8.474-11.297
			h44.928c4.83,0,8.738-3.91,8.738-8.74C167.611,116.074,163.702,112.165,158.872,112.165z"/>
		<path display="inline" fill="#FFFFFF" d="M224.494,91.839c0,0-27.469-58.317-41.208-58.317c-13.703,0-96.119,0-109.822,0
			c-13.739,0-41.208,58.317-41.208,58.317s-5.521,9.012,0,17.476c5.521,8.482,85.538,116.446,96.119,116.446
			s91-108.8,96.119-116.446S224.494,91.839,224.494,91.839z M128.361,203.486c-21.247-22.478-71.991-89.648-80.924-102.901
			c0.345-0.486,0.217-0.426,0.627-1.305c9.813-20.821,22.693-42.129,29.025-48.282h102.567c6.322,6.144,19.203,27.461,29.029,48.291
			c0.099,0.213,0.205,0.417,0.308,0.623c0,0,0.114,0.41,0.204,0.819C199.563,114.623,149.457,181.111,128.361,203.486z"/>
	</g>
	<g id="图层_3_x5F_复制" display="none">
		<path display="inline" fill="#FFFFFF" d="M120.188,52.206L54.383,114.69c-2.452,2.252-2.63,6.061-0.401,8.536
			c1.487,1.647,4.075,1.918,7.766,0.812l-0.179,63.89c-0.009,6.704,5.419,12.148,12.125,12.156c0.005,0,0.01,0,0.015,0h35.412
			v-38.263c-0.006-4.72,3.815-8.554,8.538-8.561c0.004,0,0.01,0,0.015,0h20.708c4.724-0.002,8.552,3.822,8.554,8.546
			c0,0.004,0,0.012,0,0.015v38.263h35.188c6.705,0.003,12.144-5.432,12.146-12.136c0-0.007,0-0.015,0-0.021l0.078-63.388
			c2.696,2.439,5.256,1.225,7.498-1.275c2.248-2.488,2.051-6.328-0.438-8.574c0,0,0-0.001-0.001-0.001l-64.942-62.481
			C131.844,48.019,124.804,48.019,120.188,52.206L120.188,52.206z M222.264,117.922c0.338,6.6-1.959,13.063-6.382,17.975
			c-0.84,0.938-1.724,1.819-2.667,2.646l-0.063,49.391c0.004,8.229-3.264,16.119-9.077,21.94c-5.821,5.826-13.72,9.103-21.954,9.101
			H73.709c-17.136,0-31.028-13.895-31.028-31.029c0-0.014,0-0.025,0-0.039l0.138-49.35c-1.029-0.813-1.988-1.711-2.865-2.684
			c-9.123-10.119-8.439-25.67,1.5-34.951l65.885-62.56c11.978-10.865,30.003-10.862,41.818-0.135l65.198,62.715
			C219.098,105.36,221.932,111.449,222.264,117.922L222.264,117.922z"/>
	</g>
	<g id="图层_4_x5F_复制" display="none">
		<path display="inline" fill="#FFFFFF" d="M204.662,184.074l-12.376-12.35l-90.96-90.96h61.201l-18.36,18.335l56.755,56.739
			c16.217-39.75-2.863-85.122-42.613-101.338c-24.679-10.067-52.794-6.79-74.496,8.685L71.435,50.808
			c41.823-31.764,101.476-23.61,133.243,18.212c25.823,34.001,25.819,81.048-0.013,115.044L204.662,184.074z M162.525,166.424h-61.2
			l18.36-18.361L60.767,89.157c-20.791,37.557-7.199,84.858,30.358,105.649c28.982,16.043,64.947,11.957,89.591-10.182l12.24,12.24
			c-38.733,35.434-98.86,32.759-134.295-5.977c-33.226-36.32-33.226-92,0-128.319l2.9,2.899L162.525,166.424z"/>
	</g>
	<g id="图层_5_x5F_复制" display="none">
		<path display="inline" fill="#FFFFFF" d="M194.348,44.981c0.317,1.162,0.51,2.355,0.575,3.558l0.022,0.905v18.812
			c11.392,4.749,19.395,15.988,19.395,29.098v82.423c0,17.404-14.107,31.514-31.513,31.514H71.313
			c-17.406,0-31.514-14.107-31.514-31.514V82.808c0-8.419,6.172-15.565,14.502-16.792l119.213-32.944
			c9.041-2.465,18.369,2.866,20.834,11.907l0,0V44.981L194.348,44.981z M182.827,80.382H56.926l-0.795,0.217
			c-0.951,0.26-1.65,1.068-1.769,2.046l-0.018,0.294v96.834c0,9.371,7.598,16.97,16.969,16.97l0,0h111.514
			c9.37,0,16.968-7.599,16.968-16.97l0,0v-12.121h-24.24c-15.818,0-28.688-12.627-29.082-28.352l-0.009-0.736
			c0-16.065,13.022-29.09,29.091-29.09h24.24v-12.12c0-9.146-7.247-16.646-16.388-16.959l-0.58-0.01V80.382z M199.795,124.018
			h-24.24c-7.822-0.001-14.244,6.184-14.537,14l-0.008,0.545c0,8.035,6.51,14.545,14.545,14.545h24.24V124.018L199.795,124.018z
			 M177.637,47.042l-0.271,0.058l-67.807,18.739H180.4V49.442c0.002-1.339-1.082-2.425-2.422-2.427
			c-0.115,0-0.229,0.008-0.345,0.024v0.003H177.637z"/>
	</g>
	<path fill="#FFFFFF" d="M128.83,228.24c-48.236-0.693-80.031-17.358-80.031-45.34c0-17.357,13.917-36.746,35.014-49.004
		c3.813-2.08,9.707-4.457,18.818,0.396c9.113,4.854,15.947,8.566,26.1,8.566c10.151,0,19.39-4.357,26.1-8.566
		c6.71-4.21,12.382-4.284,18.818-0.396c21.271,12.258,35.188,31.646,35.188,49.004C208.837,210.882,176.473,228.934,128.83,228.24z
		 M166.171,146.945c0,0-13.42,11.837-37.341,11.936c-20.899,0-37.342-11.936-37.342-11.936
		c-16.119,8.791-26.643,22.585-26.643,35.955c0,22.089,31.968,29.49,64.008,29.269c33.107-0.147,64.01-7.255,64.01-29.269
		C192.863,169.53,182.291,155.736,166.171,146.945z M128.83,132.114c-21.592,0-41.03-13-49.301-32.958
		c-8.246-19.934-3.665-42.888,11.589-58.141c15.303-15.253,38.256-19.785,58.19-11.514c19.934,8.27,32.907,27.758,32.856,49.35
		C182.118,108.269,158.247,132.114,128.83,132.114z M128.83,41.411c-20.626,0-37.342,16.689-37.367,37.316
		c-0.023,20.626,16.667,37.366,37.292,37.391c20.628,0.025,37.366-16.64,37.416-37.267c0-20.602-16.714-37.316-37.341-37.341V41.411
		z"/>
</g>
</svg>
