<?xml version="1.0" encoding="utf-8"?>
<!-- Generator: Adobe Illustrator 14.0.0, SVG Export Plug-In . SVG Version: 6.00 Build 43363)  -->
<!DOCTYPE svg PUBLIC "-//W3C//DTD SVG 1.1//EN" "http://www.w3.org/Graphics/SVG/1.1/DTD/svg11.dtd">
<svg version="1.1" id="图层_1" xmlns="http://www.w3.org/2000/svg" xmlns:xlink="http://www.w3.org/1999/xlink" x="0px" y="0px"
	 width="256px" height="256px" viewBox="0 0 256 256" enable-background="new 0 0 256 256" xml:space="preserve">
<path fill="#BFBFBF" d="M243.117,101.435l-24.514-4.91c-1.233-3.543-2.688-6.983-4.295-10.311l13.885-20.832
	c4.233-6.343,3.395-14.801-2.002-20.182l-15.39-15.389c-3.098-3.098-7.183-4.689-11.325-4.689c-3.061,0-6.158,0.88-8.856,2.688
	l-20.831,13.879c-3.344-1.618-6.783-3.057-10.326-4.291l-4.91-24.518c-1.49-7.485-8.063-12.865-15.687-12.865h-21.758
	c-7.623,0-14.191,5.386-15.687,12.865l-4.91,24.518c-3.542,1.234-6.983,2.678-10.311,4.291L65.38,27.81
	c-2.713-1.807-5.801-2.688-8.873-2.688c-4.137,0-8.222,1.592-11.319,4.689L29.804,45.201c-5.391,5.391-6.23,13.838-2.002,20.182
	l13.879,20.832c-1.618,3.338-3.057,6.773-4.285,10.321l-24.528,4.904c-7.48,1.495-12.866,8.063-12.866,15.687v21.759
	c0,7.623,5.386,14.196,12.866,15.686l24.518,4.92c1.234,3.543,2.678,6.983,4.285,10.311l-13.869,20.832
	c-4.234,6.344-3.389,14.801,2.002,20.182l15.39,15.39c3.097,3.097,7.183,4.689,11.319,4.689c3.072,0,6.169-0.886,8.862-2.688
	l20.832-13.884c3.338,1.623,6.773,3.062,10.321,4.296l4.904,24.512c1.495,7.485,8.063,12.871,15.687,12.871h21.759
	c7.623,0,14.196-5.391,15.686-12.871l4.92-24.512c3.543-1.234,6.983-2.688,10.312-4.296l20.831,13.884
	c2.703,1.803,5.801,2.688,8.857,2.688c4.142,0,8.232-1.593,11.33-4.689l15.389-15.39c5.391-5.391,6.23-13.838,2.002-20.182
	l-13.885-20.832c1.623-3.342,3.063-6.783,4.296-10.326l24.513-4.904c7.479-1.479,12.871-8.063,12.871-15.686v-21.759
	c0-7.623-5.392-14.191-12.871-15.687L243.117,101.435z M215.461,143.789c-5.561,1.111-10.111,5.078-11.965,10.438
	c-1.034,2.954-2.232,5.815-3.574,8.591c-2.487,5.109-2.063,11.146,1.081,15.855l13.89,20.832l-15.39,15.389l-20.831-13.884
	c-2.674-1.782-5.771-2.688-8.873-2.688c-2.375,0-4.766,0.527-6.968,1.593c-2.785,1.341-5.642,2.56-8.606,3.594
	c-5.344,1.854-9.313,6.409-10.423,11.964l-4.92,24.529h-21.758l-4.905-24.529c-1.111-5.559-5.079-10.11-10.434-11.964
	c-2.954-1.034-5.821-2.231-8.601-3.573c-2.207-1.08-4.592-1.607-6.978-1.607c-3.113,0-6.2,0.906-8.872,2.688l-20.832,13.89
	l-15.39-15.39l13.879-20.832c3.143-4.72,3.553-10.751,1.096-15.84c-1.347-2.785-2.55-5.642-3.584-8.605
	c-1.858-5.346-6.415-9.313-11.97-10.424l-24.518-4.92l-0.015-21.769l24.528-4.904c5.55-1.111,10.111-5.079,11.97-10.434
	c1.034-2.954,2.222-5.821,3.573-8.601c2.478-5.104,2.063-11.135-1.09-15.845L41.113,56.51l15.384-15.39L77.329,55
	c2.673,1.781,5.77,2.688,8.873,2.688c2.375,0,4.761-0.527,6.968-1.592c2.775-1.341,5.642-2.549,8.601-3.583
	c5.35-1.858,9.317-6.415,10.434-11.964l4.91-24.518l21.758-0.01l4.904,24.528c1.111,5.549,5.079,10.111,10.439,11.969
	c2.954,1.034,5.816,2.222,8.591,3.574c2.217,1.07,4.593,1.603,6.983,1.603c3.112,0,6.199-0.906,8.872-2.688l20.831-13.879
	l15.39,15.39l-13.89,20.832c-3.143,4.72-3.543,10.741-1.096,15.84c1.342,2.775,2.561,5.642,3.594,8.601
	c1.854,5.35,6.41,9.318,11.965,10.434l24.513,4.909l0.026,21.759l-24.528,4.909L215.461,143.789z M127.998,72.002
	C97.08,72.002,72,97.078,72,127.995c0,30.927,25.076,55.998,55.998,55.998s55.999-25.076,55.999-55.998
	C183.996,97.078,158.92,72.002,127.998,72.002z M127.998,177c-27.052,0-48.995-21.948-48.995-48.995
	c0-27.052,21.942-48.994,48.995-48.994c27.047,0,48.995,21.942,48.995,48.994C176.992,155.052,155.039,177,127.998,177z
	 M127.998,96.002C110.319,96.002,96,110.322,96,128c0,17.673,14.319,31.998,31.998,31.998c17.672,0,31.997-14.325,31.997-31.998
	S145.67,96.002,127.998,96.002z M127.998,152.006c-13.25,0-24.001-10.751-24.001-24.001c0-13.249,10.751-24,24.001-24
	s24,10.751,24,24C151.998,141.25,141.247,152.006,127.998,152.006z"/>
</svg>
