<?xml version="1.0" encoding="utf-8"?>
<!-- Generator: Adobe Illustrator 14.0.0, SVG Export Plug-In . SVG Version: 6.00 Build 43363)  -->
<!DOCTYPE svg PUBLIC "-//W3C//DTD SVG 1.1//EN" "http://www.w3.org/Graphics/SVG/1.1/DTD/svg11.dtd">
<svg version="1.1" id="图层_1" xmlns="http://www.w3.org/2000/svg" xmlns:xlink="http://www.w3.org/1999/xlink" x="0px" y="0px"
	 width="256px" height="256px" viewBox="0 0 256 256" enable-background="new 0 0 256 256" xml:space="preserve">
<path fill="#FFB288" d="M239.6,128c-0.001,61.6-50.001,111.6-111.6,111.6c-61.6,0-111.6-50-111.6-111.6
	c0-61.601,50-111.601,111.6-111.601S239.6,66.399,239.6,128z M33.6,128c0,52.2,42.4,94.399,94.4,94.399
	c52,0,94.4-42.399,94.401-94.399c0-52-42.4-94.4-94.401-94.4C76,33.6,33.6,75.8,33.6,128z"/>
<path fill="#FFB288" d="M119.6,76.6V183.2c-1.6,6.8-7.8,7-11,6.199c-2.6-0.6-6.6-4.399-7-4.8l-22-21.8c-2.4-2.4-6.8-8.4-2.2-14.4
	c4-4.8,9.6-3,12-0.6l13,12.4V78c0-3.4-1-12.601,8.2-12.601C120.4,65.399,119.6,76.6,119.6,76.6L119.6,76.6z"/>
<path fill="#F56741" d="M154.401,75L176.6,96.8c1.2,1.2,3.4,8,0.2,11.4c-2.399,2.399-8.2,3.8-10.8,1.399l-12.4-12.2l-0.001,84.2
	c0,3.4-4,7.8-8,8c-4.399,0.4-9.8-4.6-9.8-8l0.001-105c0-3.399,4.2-8,11.4-6.2C149.801,70.8,154.001,74.6,154.401,75L154.401,75z"/>
</svg>
