<?xml version="1.0" encoding="utf-8"?>
<!-- Generator: Adobe Illustrator 14.0.0, SVG Export Plug-In . SVG Version: 6.00 Build 43363)  -->
<!DOCTYPE svg PUBLIC "-//W3C//DTD SVG 1.1//EN" "http://www.w3.org/Graphics/SVG/1.1/DTD/svg11.dtd">
<svg version="1.1" id="图层_1" xmlns="http://www.w3.org/2000/svg" xmlns:xlink="http://www.w3.org/1999/xlink" x="0px" y="0px"
	 width="256px" height="256px" viewBox="0 0 256 256" enable-background="new 0 0 256 256" xml:space="preserve">
<path fill="#FFB288" d="M16.4,127.999c0.001-61.6,50.001-111.6,111.6-111.6c61.6,0,111.6,50,111.6,111.6
	c0,61.601-50,111.601-111.6,111.601S16.4,189.6,16.4,127.999z M222.4,127.999c0-52.2-42.399-94.399-94.4-94.399
	c-52,0-94.4,42.399-94.401,94.399c0,52,42.4,94.4,94.401,94.4S222.4,180.199,222.4,127.999z"/>
<path fill="#FFB288" d="M136.4,179.399V72.799c1.601-6.8,7.801-7,11-6.199c2.601,0.6,6.601,4.399,7,4.8l22,21.8
	c2.4,2.4,6.801,8.4,2.2,14.4c-4,4.8-9.6,3-12,0.6l-13-12.4v82.2c0,3.4,1,12.601-8.2,12.601C135.6,190.6,136.4,179.399,136.4,179.399
	L136.4,179.399z"/>
<path fill="#F56741" d="M101.599,180.999l-22.199-21.8c-1.2-1.2-3.4-8-0.2-11.4c2.399-2.399,8.2-3.8,10.8-1.399l12.4,12.2
	l0.001-84.2c0-3.4,4-7.8,8-8c4.399-0.4,9.8,4.6,9.8,8l-0.001,105c0,3.399-4.2,8-11.4,6.2C106.2,185.199,102,181.399,101.599,180.999
	L101.599,180.999z"/>
</svg>
