<?xml version="1.0" encoding="utf-8"?>
<!-- Generator: Adobe Illustrator 14.0.0, SVG Export Plug-In . SVG Version: 6.00 Build 43363)  -->
<!DOCTYPE svg PUBLIC "-//W3C//DTD SVG 1.1//EN" "http://www.w3.org/Graphics/SVG/1.1/DTD/svg11.dtd">
<svg version="1.1" id="图层_1" xmlns="http://www.w3.org/2000/svg" xmlns:xlink="http://www.w3.org/1999/xlink" x="0px" y="0px"
	 width="256px" height="256px" viewBox="0 0 256 256" enable-background="new 0 0 256 256" xml:space="preserve">
<g id="图层_1_1_">
	<path fill="#F56741" d="M254,127.979c-0.945,16.643-0.215,34.316-4.172,51.346c-3.697,16.942-12.084,33.284-24.469,45.584
		c-12.299,12.428-28.598,20.813-45.584,24.469c-17.029,3.957-34.703,3.226-51.346,4.172c-16.643-0.946-34.317-0.215-51.346-4.172
		c-16.943-3.698-33.284-12.085-45.583-24.47c-12.428-12.299-20.813-28.598-24.469-45.584c-4.042-16.986-3.268-34.66-4.214-51.346
		c0.946-16.643,0.215-34.317,4.171-51.346c3.698-16.943,12.084-33.285,24.469-45.583C43.756,18.621,60.054,10.235,77.041,6.58
		c17.029-3.957,34.704-3.225,51.346-4.171c16.642,0.946,34.316,0.215,51.345,4.171c16.941,3.698,33.285,12.084,45.584,24.469
		c12.429,12.299,20.813,28.597,24.47,45.583C253.785,93.662,253.055,111.336,254,127.979z"/>
</g>
<g id="图层_4_x5F_复制">
	<path fill="#FFFFFF" d="M204.662,184.074l-12.376-12.35l-90.96-90.96h61.201l-18.36,18.335l56.755,56.739
		c16.217-39.75-2.863-85.122-42.613-101.338c-24.679-10.067-52.793-6.79-74.496,8.685L71.435,50.808
		c41.823-31.764,101.476-23.61,133.243,18.212c25.823,34.001,25.819,81.048-0.013,115.044L204.662,184.074z M162.525,166.424h-61.2
		l18.36-18.361L60.767,89.157c-20.791,37.557-7.199,84.858,30.358,105.649c28.982,16.043,64.947,11.957,89.591-10.183l12.24,12.24
		c-38.733,35.434-98.86,32.759-134.295-5.978c-33.226-36.32-33.226-92,0-128.319l2.9,2.899L162.525,166.424z"/>
</g>
</svg>
