<?xml version="1.0" standalone="no"?><!DOCTYPE svg PUBLIC "-//W3C//DTD SVG 1.1//EN" "http://www.w3.org/Graphics/SVG/1.1/DTD/svg11.dtd"><svg t="1632474868317" class="icon" viewBox="0 0 1220 1024" version="1.1" xmlns="http://www.w3.org/2000/svg" p-id="28335" xmlns:xlink="http://www.w3.org/1999/xlink" width="305" height="256"><defs><style type="text/css"></style></defs><path d="M196.923077 177.230769h787.692308v157.538462H196.923077z" fill="#eeb173" p-id="28336" data-spm-anchor-id="a313x.7781069.0.i16" class="selected"></path><path d="M275.692308 748.307692m-275.692308 0a275.692308 275.692308 0 1 0 551.384615 0 275.692308 275.692308 0 1 0-551.384615 0Z" fill="#f9f28b" opacity=".2" p-id="28337" data-spm-anchor-id="a313x.7781069.0.i7" class=""></path><path d="M984.615385 157.538462H196.923077a19.692308 19.692308 0 0 0-19.692308 19.692307v689.230769a19.692308 19.692308 0 0 0 19.692308 19.692308h787.692308a19.692308 19.692308 0 0 0 19.692307-19.692308V609.358769 177.230769a19.692308 19.692308 0 0 0-19.692307-19.692307z m-19.692308 39.384615v649.846154H216.615385V196.923077h748.307692z" fill="#f56741" p-id="28338" data-spm-anchor-id="a313x.7781069.0.i3" class=""></path><path d="M295.384615 433.230769m39.384616 0l118.153846 0q39.384615 0 39.384615 39.384616l0 118.153846q0 39.384615-39.384615 39.384615l-118.153846 0q-39.384615 0-39.384616-39.384615l0-118.153846q0-39.384615 39.384616-39.384616Z" fill="#eeb173" p-id="28339" data-spm-anchor-id="a313x.7781069.0.i17" class="selected"></path><path d="M295.384615 669.538462m39.384616 0l512 0q39.384615 0 39.384615 39.384615l0 19.692308q0 39.384615-39.384615 39.384615l-512 0q-39.384615 0-39.384616-39.384615l0-19.692308q0-39.384615 39.384616-39.384615Z" fill="#eeb173" p-id="28340" data-spm-anchor-id="a313x.7781069.0.i21" class="selected"></path><path d="M531.692308 433.230769m19.692307 0l157.538462 0q19.692308 0 19.692308 19.692308l0 0q0 19.692308-19.692308 19.692308l-157.538462 0q-19.692308 0-19.692307-19.692308l0 0q0-19.692308 19.692307-19.692308Z" fill="#eeb173" p-id="28341" data-spm-anchor-id="a313x.7781069.0.i18" class="selected"></path><path d="M531.692308 512m19.692307 0l216.615385 0q19.692308 0 19.692308 19.692308l0 0q0 19.692308-19.692308 19.692307l-216.615385 0q-19.692308 0-19.692307-19.692307l0 0q0-19.692308 19.692307-19.692308Z" fill="#eeb173" p-id="28342" data-spm-anchor-id="a313x.7781069.0.i19" class="selected"></path><path d="M531.692308 590.769231m19.692307 0l315.076923 0q19.692308 0 19.692308 19.692307l0 0q0 19.692308-19.692308 19.692308l-315.076923 0q-19.692308 0-19.692307-19.692308l0 0q0-19.692308 19.692307-19.692307Z" fill="#eeb173" p-id="28343" data-spm-anchor-id="a313x.7781069.0.i20" class="selected"></path><path d="M926.306462 4.844308c-15.419077 8.467692-33.378462 17.152-52.381539 25.52123l-14.395077 6.183385-14.651077 6.025846-14.769231 5.789539-7.364923 2.796307-14.651077 5.356308-7.246769 2.540308-14.217846 4.785231-13.764923 4.332307c-24.713846 7.542154-46.395077 12.563692-61.105231 13.646769l-3.84 0.196924a39.384615 39.384615 0 0 0-38.360615 39.384615v184.300308c0.433231 51.396923 10.180923 99.485538 38.990769 152.044307 40.507077 73.865846 111.950769 138.043077 220.061539 188.416a39.384615 39.384615 0 0 0 35.131076-0.925538c195.485538-104.054154 256.590769-214.843077 257.181539-344.812308V121.403077a39.384615 39.384615 0 0 0-35.328-39.187692l-3.032615-0.196923c-21.976615-0.571077-63.527385-12.091077-107.500308-28.16l-14.710154-5.494154-7.384615-2.855385-14.729847-5.907692a977.604923 977.604923 0 0 1-7.286153-3.052308l-14.41477-6.203077A683.835077 683.835077 0 0 1 964.174769 4.844308a39.384615 39.384615 0 0 0-37.868307 0zM945.230769 39.384615c60.120615 32.984615 174.907077 77.705846 231.049846 81.74277l5.238154 0.275692-0.078769 184.950154-0.256 8.920615-0.393846 7.286154-0.374154 5.12-0.787692 8.034462-0.708923 5.612307-0.866462 5.789539-1.614769 9.038769-1.319385 6.242461-1.516307 6.4-1.772308 6.557539-1.969231 6.715077-2.264615 6.852923-1.220923 3.485538-2.678154 7.089231c-0.925538 2.363077-1.910154 4.765538-2.953846 7.187692l-3.268923 7.325539-3.603693 7.424c-1.870769 3.741538-3.899077 7.542154-6.045538 11.382154l-4.470154 7.699692C1111.433846 493.508923 1052.849231 553.196308 945.230769 610.461538c-96.571077-44.996923-153.698462-97.831385-187.490461-147.692307l-5.277539-8.034462c-2.56-4.017231-4.923077-8.014769-7.187692-11.972923l-4.332308-7.876923a284.278154 284.278154 0 0 1-5.809231-11.638154l-3.465846-7.640615a276.243692 276.243692 0 0 1-4.588307-11.244308l-2.697847-7.325538a272.364308 272.364308 0 0 1-1.240615-3.623385l-2.284308-7.128615-2.028307-6.951385-1.772308-6.793846-1.575385-6.636308-1.339077-6.439384-1.142153-6.242462-0.984616-6.025846-0.787692-5.809231-0.925539-8.310154-0.649846-7.739077-0.295384-4.844307-0.33477-8.881231-0.098461-5.907692v-184.32c26.958769-0.689231 70.498462-12.681846 115.081846-28.75077l16.738462-6.203077 8.329846-3.209846 16.541538-6.636307c30.030769-12.307692 58.269538-25.501538 79.616-37.19877z" fill="#f9f28b" p-id="28344" data-spm-anchor-id="a313x.7781069.0.i6" class=""></path><path d="M945.230769 39.384615c60.140308 32.984615 174.926769 77.705846 231.069539 81.74277l5.238154 0.275692-0.07877 184.950154-0.256 8.920615-0.393846 7.286154-0.374154 5.12-0.787692 8.034462-0.708923 5.612307-0.866462 5.789539-1.614769 9.038769-1.319384 6.242461-1.516308 6.4-1.772308 6.557539-1.969231 6.715077-2.264615 6.852923-1.220923 3.485538-2.678154 7.089231c-0.925538 2.363077-1.910154 4.765538-2.953846 7.187692l-3.268923 7.325539-3.603692 7.424c-1.870769 3.741538-3.899077 7.542154-6.045539 11.382154l-4.470154 7.699692C1111.433846 493.508923 1052.849231 553.196308 945.230769 610.461538c-96.571077-44.996923-153.698462-97.831385-187.490461-147.692307l-5.277539-8.034462c-2.56-4.017231-4.923077-8.014769-7.187692-11.972923l-4.332308-7.876923a284.278154 284.278154 0 0 1-5.809231-11.638154l-3.465846-7.640615a276.243692 276.243692 0 0 1-4.588307-11.244308l-2.697847-7.325538a272.364308 272.364308 0 0 1-1.240615-3.623385l-2.284308-7.128615-2.028307-6.951385-1.772308-6.793846-1.575385-6.636308-1.339077-6.439384-1.142153-6.242462-0.984616-6.025846-0.787692-5.809231-0.925539-8.310154-0.649846-7.739077-0.295384-4.844307-0.33477-8.881231-0.098461-5.907692v-184.32c26.958769-0.689231 70.498462-12.681846 115.081846-28.75077l16.738462-6.203077 8.329846-3.209846 16.541538-6.636307c30.030769-12.307692 58.269538-25.501538 79.616-37.19877z m0 44.465231l-2.717538 1.398154c-57.895385 28.947692-133.336615 57.107692-188.672 69.277538L748.307692 155.667692v149.700923c0.315077 36.667077 6.715077 70.419692 25.403077 107.126154l3.918769 7.384616c29.026462 52.972308 79.753846 101.100308 158.109539 141.981538l8.369231 4.292923 0.846769-0.452923c82.865231-46.808615 136.152615-96.669538 166.321231-148.283077l3.150769-5.513846c20.027077-36.332308 26.742154-66.953846 27.628308-104.605538l0.098461-7.128616V155.667692l-5.513846-1.142154c-52.086154-11.460923-121.993846-37.080615-178.274462-64.196923L945.230769 83.869538z" fill="#f56741" p-id="28345" data-spm-anchor-id="a313x.7781069.0.i5" class=""></path><path d="M945.230769 83.849846l-2.717538 1.398154c-57.895385 28.947692-133.336615 57.107692-188.672 69.277538L748.307692 155.667692v149.700923c0.315077 36.667077 6.715077 70.419692 25.403077 107.126154l3.918769 7.384616c29.026462 52.972308 79.753846 101.100308 158.109539 141.981538l8.369231 4.292923 0.846769-0.452923c82.865231-46.808615 136.152615-96.669538 166.321231-148.283077l3.150769-5.513846c20.027077-36.332308 26.742154-66.953846 27.628308-104.605538l0.098461-7.128616V155.667692l-5.513846-1.142154c-52.086154-11.460923-121.993846-37.080615-178.274462-64.196923L945.230769 83.869538z" fill="#f9f28b" p-id="28346" data-spm-anchor-id="a313x.7781069.0.i13" class=""></path><path d="M945.230769 162.461538a152.615385 152.615385 0 1 0 0 305.23077 152.615385 152.615385 0 0 0 0-305.23077z m0 29.538462a123.076923 123.076923 0 1 1 0 246.153846 123.076923 123.076923 0 0 1 0-246.153846z" fill="#ea986c" p-id="28347" data-spm-anchor-id="a313x.7781069.0.i14" class=""></path><path d="M1066.830769 205.449846a19.692308 19.692308 0 0 1 29.479385 25.993846l-1.634462 1.851077-145.486769 145.486769a19.692308 19.692308 0 0 1-25.993846 1.634462l-1.851077-1.634462-64.590769-64.571076a19.692308 19.692308 0 0 1 25.993846-29.479385l1.870769 1.634461 50.648616 50.648616 131.544615-131.544616z" fill="#0ED3E3" p-id="28348" data-spm-anchor-id="a313x.7781069.0.i22" class="selected"></path></svg>